<svg width="16" height="16" viewBox="0 0 16 16" fill="none" xmlns="http://www.w3.org/2000/svg">
<g id="Group 9">
<path id="Vector (Stroke)" fill-rule="evenodd" clip-rule="evenodd" d="M10.7803 5.21967C11.0732 5.51256 11.0732 5.98744 10.7803 6.28033L6.28033 10.7803C5.98744 11.0732 5.51256 11.0732 5.21967 10.7803C4.92678 10.4874 4.92678 10.0126 5.21967 9.71967L9.71967 5.21967C10.0126 4.92678 10.4874 4.92678 10.7803 5.21967Z" fill="white"/>
<g id="Group 5">
<path id="Vector (Stroke)_2" fill-rule="evenodd" clip-rule="evenodd" d="M2.34315 2.34315C3.84344 0.842855 5.87827 0 8 0C10.1217 0 12.1566 0.842855 13.6569 2.34315C15.1571 3.84344 16 5.87827 16 8C16 9.05057 15.7931 10.0909 15.391 11.0615C14.989 12.0321 14.3997 12.914 13.6569 13.6569C12.914 14.3997 12.0321 14.989 11.0615 15.391C10.0909 15.7931 9.05057 16 8 16C6.94943 16 5.90914 15.7931 4.93853 15.391C3.96793 14.989 3.08601 14.3997 2.34315 13.6569C1.60028 12.914 1.011 12.0321 0.608964 11.0615C0.206926 10.0909 0 9.05058 0 8C4.76837e-08 5.87827 0.842855 3.84344 2.34315 2.34315ZM8 1.6C6.30261 1.6 4.67475 2.27428 3.47452 3.47452C2.27428 4.67475 1.6 6.30261 1.6 8C1.6 8.84046 1.76554 9.67269 2.08717 10.4492C2.4088 11.2257 2.88022 11.9312 3.47452 12.5255C4.06881 13.1198 4.77434 13.5912 5.55083 13.9128C6.32731 14.2345 7.15954 14.4 8 14.4C8.84046 14.4 9.67269 14.2345 10.4492 13.9128C11.2257 13.5912 11.9312 13.1198 12.5255 12.5255C13.1198 11.9312 13.5912 11.2257 13.9128 10.4492C14.2345 9.67269 14.4 8.84046 14.4 8C14.4 6.30261 13.7257 4.67475 12.5255 3.47452C11.3253 2.27428 9.69739 1.6 8 1.6Z" fill="white"/>
<path id="Vector (Stroke)_3" fill-rule="evenodd" clip-rule="evenodd" d="M5 5.75C5 5.33579 5.33579 5 5.75 5H10.25C10.6642 5 11 5.33579 11 5.75V10.25C11 10.6642 10.6642 11 10.25 11C9.83579 11 9.5 10.6642 9.5 10.25V6.5H5.75C5.33579 6.5 5 6.16421 5 5.75Z" fill="white"/>
</g>
</g>
</svg>
