<svg width="154" height="43" viewBox="0 0 154 43" fill="none" xmlns="http://www.w3.org/2000/svg">
<g id="Group 168">
<g id="Group">
<path id="Vector" d="M72.7812 14.3416C72.2909 17.3071 69.7888 18.8887 66.1201 18.8887C61.9612 18.8887 59.1886 16.6563 59.1886 12.9741C59.1886 9.29195 61.9105 7.09253 66.1032 7.09253C69.6282 7.09253 72.2994 8.5341 72.7474 11.5655H69.6113C69.2478 10.058 67.9376 9.23429 66.1201 9.23429C63.4574 9.23429 62.2655 11.0466 62.2655 12.9906C62.2655 15.0665 63.6349 16.7634 66.1371 16.7634C67.9376 16.7634 69.2393 15.9397 69.6113 14.3416H72.7812Z" fill="white"/>
<path id="Vector_2" d="M78.0559 14.218L72.8657 7.40555H76.3822L79.5014 11.8785L82.5952 7.40555H86.0357L80.8708 14.218V18.5921H78.0559V14.218Z" fill="white"/>
<path id="Vector_3" d="M86.8472 7.39731H94.5395C96.7711 7.39731 98.1067 8.40229 98.1067 10.2393C98.1067 11.3101 97.5995 12.1504 96.4837 12.6446C97.8869 12.8918 98.6139 14.2592 98.6139 15.2971C98.6139 17.1753 97.4051 18.5921 94.5057 18.5921H86.8472V7.39731ZM93.1701 11.9115C94.3451 11.9115 95.1143 11.6149 95.1143 10.6841C95.1143 9.75325 94.0661 9.47317 93.2462 9.47317H89.6451V11.9115H93.1701ZM93.5167 16.4916C94.903 16.4916 95.5708 16.2115 95.5708 15.19C95.5708 14.2921 94.996 13.8391 93.6097 13.8391H89.6451V16.4916H93.5167Z" fill="white"/>
<path id="Vector_4" d="M100.465 7.39731H110.871V9.5885H103.272V11.7797H110.102V13.8473H103.272V16.4257H110.888V18.6004H100.474V7.40555L100.465 7.39731Z" fill="white"/>
<path id="Vector_5" d="M112.714 7.39731H119.949C123.026 7.39731 124.142 8.5588 124.142 10.4123C124.142 11.8209 123.474 12.727 122.037 13.2377C123.407 13.5672 123.677 14.4651 123.77 16.1291C123.838 17.3895 123.88 18.0402 124.311 18.6004H121.192C120.981 18.1473 120.998 17.8672 120.922 16.7222C120.812 14.9347 120.33 14.4569 118.91 14.4569H115.52V18.6004H112.714V7.40555V7.39731ZM118.893 12.3069C119.882 12.3069 121.091 12.0598 121.091 10.9065C121.091 9.62145 119.975 9.57202 118.512 9.57202H115.52V12.3069H118.901H118.893Z" fill="white"/>
<path id="Vector_6" d="M68.6222 35.5121C67.6839 36.0393 66.3314 36.3193 64.9113 36.3193C62.8065 36.3193 61.0229 35.6686 60.0677 34.5318C59.6366 33.9881 59.3999 33.2879 59.3661 32.39H60.9722C60.9722 33.0902 61.2427 33.6586 61.7499 34.1282C62.4684 34.7625 63.5842 35.059 64.9874 35.059C65.9764 35.059 66.8471 34.9354 67.4557 34.6224C68.0897 34.2847 68.5377 33.7245 68.5377 33.0243C68.5377 32.1429 67.7262 31.6157 66.2892 31.2697C65.1142 30.9732 63.88 30.8331 62.6543 30.5284C61.0652 30.1412 59.7887 29.3174 59.7887 27.8759C59.7887 25.7176 61.9527 24.5808 64.6915 24.5808C67.6501 24.5808 69.6451 25.7588 69.7127 28.09H68.1066C67.9967 26.5661 66.7034 25.8082 64.6324 25.8082C62.8995 25.8082 61.4963 26.4096 61.4963 27.7193C61.4963 28.5266 62.274 28.9797 63.6264 29.301C64.8014 29.5646 66.0018 29.754 67.2613 30.0588C68.9012 30.4789 70.2368 31.4098 70.2368 32.9337C70.2368 34.0046 69.5352 34.9684 68.6138 35.5121H68.6222Z" fill="white"/>
<path id="Vector_7" d="M72.7305 36.0063V24.8115H82.1726V26.0718H74.4296V29.6387H81.7584V30.899H74.4296V34.746H82.3586V36.0063H72.722H72.7305Z" fill="white"/>
<path id="Vector_8" d="M94.5057 31.8628H96.2301C95.8497 34.7377 93.8548 36.3193 90.4651 36.3193C88.7575 36.3193 87.2613 35.8086 86.2301 35.0343C84.9537 33.9799 84.2098 32.3159 84.2098 30.5036C84.2098 28.6914 84.9706 27.0274 86.2639 25.94C87.3036 25.1328 88.8252 24.5891 90.5834 24.5891C93.4997 24.5891 95.5538 25.8165 96.0272 28.2383H94.3028C94.1084 27.4475 93.728 26.8874 93.1109 26.5002C92.4854 26.0966 91.5217 25.8494 90.4651 25.8494C87.4558 25.8494 85.9088 27.8347 85.9088 30.446C85.9088 33.0573 87.4896 35.0755 90.5412 35.0755C92.1472 35.0755 93.3898 34.3588 94.0154 33.3868C94.2098 32.9996 94.4296 32.4559 94.5057 31.8793V31.8628Z" fill="white"/>
<path id="Vector_9" d="M104.066 36.3194C100.685 36.3194 98.6477 34.9519 98.6477 32.3324V24.8197H100.355V32.3324C100.355 33.3868 100.846 34.1364 101.758 34.5977C102.367 34.9107 103.128 35.0672 104.066 35.0672C106.374 35.0672 107.684 34.0705 107.684 32.3324V24.8197H109.392V32.3324C109.392 34.8613 107.388 36.3194 104.075 36.3194H104.066Z" fill="white"/>
<path id="Vector_10" d="M121.725 36.0063C121.513 35.6768 121.243 34.9519 121.217 34.2682C121.201 34.1117 121.184 33.8975 121.15 33.2138C121.04 32.0358 120.482 31.2121 118.808 31.2121H114.252V36.0063H112.545V24.8115H118.724C121.353 24.8115 123.069 25.9153 123.069 27.777C123.069 29.0785 122.35 30.0423 120.803 30.5366C121.437 30.7096 121.953 30.9897 122.24 31.3274C122.578 31.7475 122.705 32.3406 122.747 33.1561C122.798 34.1364 122.891 35.1084 123.449 35.9981H121.716L121.725 36.0063ZM120.423 26.4096C119.789 26.0801 118.859 26.0718 118.141 26.0718H114.252V29.9517H118.343C120 29.9517 121.336 29.5316 121.336 27.9994C121.336 27.3157 120.998 26.7556 120.414 26.4178L120.423 26.4096Z" fill="white"/>
<path id="Vector_11" d="M126.103 36.0063V24.8115H127.811V36.0063H126.103Z" fill="white"/>
<path id="Vector_12" d="M135.985 26.0718V36.0063H134.278V26.0718H129.704V24.8115H140.55V26.0718H135.977H135.985Z" fill="white"/>
<path id="Vector_13" d="M147.988 31.5169H147.972V36.0063H146.264V31.5169H146.247C144.48 29.2845 142.68 27.0439 140.913 24.8115H143.035L147.126 30.1988H147.194L151.192 24.8115H153.212L147.988 31.5169Z" fill="white"/>
</g>
<g id="Group_2">
<path id="Vector_14" d="M45.4692 26.0471C45.4692 6.68889 45.4692 0 45.4692 0H0V43C0 43 9.45057 43 29.7211 43C40.1522 43 45.4692 37.3655 45.4692 26.0471Z" fill="#004F9E"/>
<path id="Vector_15" d="M45.4692 0H0V43L45.4692 0Z" fill="#3D68AF"/>
<g id="Group_3">
<path id="Vector_16" d="M31.2342 34.8696C33.5825 34.8696 35.4861 33.0145 35.4861 30.7261C35.4861 28.4377 33.5825 26.5826 31.2342 26.5826C28.8859 26.5826 26.9823 28.4377 26.9823 30.7261C26.9823 33.0145 28.8859 34.8696 31.2342 34.8696Z" fill="white"/>
<path id="Vector_17" d="M21.716 33.8728C23.4994 33.8728 24.9451 32.464 24.9451 30.7261C24.9451 28.9882 23.4994 27.5793 21.716 27.5793C19.9326 27.5793 18.4869 28.9882 18.4869 30.7261C18.4869 32.464 19.9326 33.8728 21.716 33.8728Z" fill="white"/>
<path id="Vector_18" d="M12.1217 32.6784C13.2282 32.6784 14.1251 31.8043 14.1251 30.7261C14.1251 29.6478 13.2282 28.7738 12.1217 28.7738C11.0153 28.7738 10.1183 29.6478 10.1183 30.7261C10.1183 31.8043 11.0153 32.6784 12.1217 32.6784Z" fill="white"/>
<path id="Vector_19" d="M12.1217 16.1209C14.47 16.1209 16.3736 14.2658 16.3736 11.9774C16.3736 9.68903 14.47 7.83392 12.1217 7.83392C9.77346 7.83392 7.86981 9.68903 7.86981 11.9774C7.86981 14.2658 9.77346 16.1209 12.1217 16.1209Z" fill="white"/>
<path id="Vector_20" d="M21.716 15.1241C23.4994 15.1241 24.9451 13.7153 24.9451 11.9774C24.9451 10.2395 23.4994 8.83066 21.716 8.83066C19.9326 8.83066 18.4869 10.2395 18.4869 11.9774C18.4869 13.7153 19.9326 15.1241 21.716 15.1241Z" fill="white"/>
<path id="Vector_21" d="M31.2342 13.9297C32.3407 13.9297 33.2376 13.0556 33.2376 11.9774C33.2376 10.8992 32.3407 10.0251 31.2342 10.0251C30.1278 10.0251 29.2308 10.8992 29.2308 11.9774C29.2308 13.0556 30.1278 13.9297 31.2342 13.9297Z" fill="white"/>
<path id="Vector_22" d="M12.1217 24.828C13.9051 24.828 15.3508 23.4191 15.3508 21.6812C15.3508 19.9433 13.9051 18.5345 12.1217 18.5345C10.3383 18.5345 8.89264 19.9433 8.89264 21.6812C8.89264 23.4191 10.3383 24.828 12.1217 24.828Z" fill="white"/>
<path id="Vector_23" d="M21.716 24.828C23.4994 24.828 24.9451 23.4191 24.9451 21.6812C24.9451 19.9433 23.4994 18.5345 21.716 18.5345C19.9326 18.5345 18.4869 19.9433 18.4869 21.6812C18.4869 23.4191 19.9326 24.828 21.716 24.828Z" fill="white"/>
<path id="Vector_24" d="M31.2342 24.828C33.0176 24.828 34.4633 23.4191 34.4633 21.6812C34.4633 19.9433 33.0176 18.5345 31.2342 18.5345C29.4508 18.5345 28.0051 19.9433 28.0051 21.6812C28.0051 23.4191 29.4508 24.828 31.2342 24.828Z" fill="white"/>
</g>
</g>
</g>
</svg>
