<svg width="48" height="48" viewBox="0 0 48 48" fill="none" xmlns="http://www.w3.org/2000/svg">
<g id="diagram 1" clip-path="url(#clip0_7_57)">
<path id="Vector" d="M4.08108 0H14.8506C17.1009 0 18.9316 1.83075 18.9316 4.08103V15.7872C17.653 16.5761 16.5717 17.655 15.7798 18.9316H4.08098C1.8307 18.9316 -4.57764e-05 17.1008 -4.57764e-05 14.8506V4.08103C4.76837e-05 1.83075 1.8308 0 4.08108 0ZM2.06255 14.8506C2.06255 15.9636 2.96808 16.8691 4.08108 16.8691H16.8692V4.08103C16.8692 2.96803 15.9637 2.0625 14.8507 2.0625H4.08117C2.96808 2.0625 2.06255 2.96803 2.06255 4.08103V14.8506Z" fill="#00EAC7"/>
<path id="Vector_2" d="M32.1802 29.0683H43.919C46.1693 29.0683 48 30.8991 48 33.1494V43.919C48 46.1692 46.1693 48 43.919 48H33.1494C30.8992 48 29.0684 46.1692 29.0684 43.919V32.1877C30.3295 31.4011 31.3966 30.3316 32.1802 29.0683ZM31.1308 43.919C31.1308 45.032 32.0363 45.9375 33.1493 45.9375H43.919C45.032 45.9375 45.9375 45.032 45.9375 43.919V33.1494C45.9375 32.0364 45.032 31.1309 43.919 31.1309H31.1309V43.919H31.1308Z" fill="#00EAC7"/>
<path id="Vector_3" d="M36.1991 10.7696H40.7738C41.3433 10.7696 41.8051 11.2313 41.8051 11.8009C41.8051 12.3704 41.3433 12.8321 40.7738 12.8321H36.1991C35.6296 12.8321 35.1678 12.3704 35.1678 11.8009C35.1678 11.2313 35.6296 10.7696 36.1991 10.7696Z" fill="white"/>
<path id="Vector_4" d="M11.8009 12.8321H7.22618C6.65665 12.8321 6.19493 12.3704 6.19493 11.8009C6.19493 11.2313 6.65665 10.7696 7.22618 10.7696H11.8009C12.3704 10.7696 12.8322 11.2313 12.8322 11.8009C12.8322 12.3704 12.3704 12.8321 11.8009 12.8321Z" fill="white"/>
<path id="Vector_5" d="M4.08103 29.0683H15.7798C14.8657 27.5947 14.3369 25.858 14.3369 24C14.3369 18.6827 18.6628 14.3569 23.9799 14.3569C25.8464 14.3569 27.5904 14.8904 29.0683 15.8123V4.08103C29.0683 1.83075 30.8992 0 33.1494 0H43.919C46.1693 0 48 1.83075 48 4.08103V14.8506C48 17.1008 46.1693 18.9316 43.919 18.9316H32.1803C33.0944 20.4053 33.6232 22.1419 33.6232 23.9999C33.6232 29.3172 29.2972 33.643 23.98 33.643C22.1304 33.643 20.401 33.1192 18.9317 32.2126V43.9188C18.9317 46.1691 17.1009 47.9998 14.8507 47.9998H4.08113C1.83075 48 0 46.1693 0 43.919V33.1494C0 30.8992 1.83075 29.0683 4.08103 29.0683ZM45.9375 14.8506V4.08103C45.9375 2.96803 45.032 2.0625 43.919 2.0625H33.1494C32.0364 2.0625 31.1309 2.96803 31.1309 4.08103V16.8691H43.919C45.032 16.8692 45.9375 15.9636 45.9375 14.8506ZM31.5606 24C31.5606 19.82 28.16 16.4194 23.9799 16.4194C19.8 16.4194 16.3994 19.82 16.3994 24C16.3994 28.18 19.8 31.5806 23.9799 31.5806C28.16 31.5806 31.5606 28.18 31.5606 24ZM2.0625 43.919C2.0625 45.032 2.96803 45.9375 4.08103 45.9375H14.8506C15.9636 45.9375 16.8691 45.032 16.8691 43.919V31.1308H4.08103C2.96803 31.1308 2.0625 32.0363 2.0625 33.1493V43.919Z" fill="white"/>
<path id="Vector_6" d="M36.1991 39.7426H40.7738C41.3433 39.7426 41.8051 40.2043 41.8051 40.7738C41.8051 41.3434 41.3433 41.8051 40.7738 41.8051H36.1991C35.6296 41.8051 35.1678 41.3434 35.1678 40.7738C35.1678 40.2043 35.6296 39.7426 36.1991 39.7426Z" fill="white"/>
<path id="Vector_7" d="M7.22618 39.7426H11.8009C12.3704 39.7426 12.8322 40.2043 12.8322 40.7738C12.8322 41.3434 12.3704 41.8051 11.8009 41.8051H7.22618C6.65665 41.8051 6.19493 41.3434 6.19493 40.7738C6.19493 40.2043 6.65665 39.7426 7.22618 39.7426Z" fill="white"/>
<path id="Vector_8" d="M22.4751 25.2561H25.5249C26.0944 25.2561 26.5562 25.7178 26.5562 26.2873C26.5562 26.8569 26.0944 27.3186 25.5249 27.3186H22.4751C21.9056 27.3186 21.4439 26.8569 21.4439 26.2873C21.4439 25.7178 21.9056 25.2561 22.4751 25.2561Z" fill="white"/>
<path id="Vector_9" d="M38.4864 8.25779C37.9167 8.25779 37.4549 7.796 37.4549 7.22635C37.4549 6.65671 37.9167 6.19492 38.4864 6.19492C39.056 6.19492 39.5178 6.65671 39.5178 7.22635C39.5178 7.796 39.056 8.25779 38.4864 8.25779Z" fill="white"/>
<path id="Vector_10" d="M9.51379 8.2576C8.94425 8.2576 8.48254 7.79589 8.48254 7.22635C8.48254 6.65681 8.94425 6.1951 9.51379 6.1951C10.0833 6.1951 10.545 6.65681 10.545 7.22635C10.545 7.79589 10.0833 8.2576 9.51379 8.2576Z" fill="white"/>
<path id="Vector_11" d="M9.51359 37.2298C8.9442 37.2298 8.48262 36.7682 8.48262 36.1988C8.48262 35.6295 8.9442 35.1679 9.51359 35.1679C10.083 35.1679 10.5446 35.6295 10.5446 36.1988C10.5446 36.7682 10.083 37.2298 9.51359 37.2298Z" fill="white"/>
<path id="Vector_12" d="M38.4863 37.2301C37.9168 37.2301 37.4551 36.7684 37.4551 36.1989C37.4551 35.6293 37.9168 35.1676 38.4863 35.1676C39.0559 35.1676 39.5176 35.6293 39.5176 36.1989C39.5176 36.7684 39.0559 37.2301 38.4863 37.2301Z" fill="white"/>
<path id="Vector_13" d="M24 22.7438C23.4305 22.7438 22.9688 22.2821 22.9688 21.7126C22.9688 21.143 23.4305 20.6813 24 20.6813C24.5695 20.6813 25.0312 21.143 25.0312 21.7126C25.0312 22.2821 24.5695 22.7438 24 22.7438Z" fill="white"/>
</g>
<defs>
<clipPath id="clip0_7_57">
<rect width="48" height="48" fill="white" transform="matrix(-1 0 0 1 48 0)"/>
</clipPath>
</defs>
</svg>
