<svg width="51" height="51" viewBox="0 0 51 51" fill="none" xmlns="http://www.w3.org/2000/svg">
<g id="password 1" clip-path="url(#clip0_298_534)">
<g id="Group">
<g id="Group_2">
<path id="Vector" d="M47.8108 30.5813H3.18921C1.48649 30.5813 0.101318 31.9665 0.101318 33.6692V47.9121C0.101318 49.6147 1.48649 51 3.18921 51H47.8109C49.5136 51 50.8988 49.6147 50.8988 47.9121V33.6692C50.8987 31.9665 49.5135 30.5813 47.8108 30.5813ZM48.7073 47.9121C48.7073 48.4064 48.3052 48.8086 47.8108 48.8086H3.18921C2.69485 48.8086 2.29272 48.4064 2.29272 47.9121V33.6692C2.29272 33.1749 2.69485 32.7727 3.18921 32.7727H47.8109C48.3053 32.7727 48.7074 33.1749 48.7074 33.6692V47.9121H48.7073Z" fill="white"/>
<path id="Vector_2" d="M44.2936 37.8678C43.8656 37.44 43.1718 37.44 42.744 37.8678L41.3707 39.2411L39.9974 37.8678C39.5694 37.4399 38.8758 37.44 38.4478 37.8678C38.0199 38.2957 38.0199 38.9895 38.4478 39.4174L39.8211 40.7907L38.4478 42.1641C38.0199 42.592 38.0199 43.2858 38.4478 43.7137C38.6617 43.9276 38.9421 44.0346 39.2225 44.0346C39.5028 44.0346 39.7834 43.9276 39.9973 43.7137L41.3706 42.3404L42.7439 43.7137C42.9579 43.9276 43.2383 44.0346 43.5187 44.0346C43.7991 44.0346 44.0795 43.9276 44.2934 43.7137C44.7214 43.2858 44.7214 42.592 44.2934 42.1641L42.9201 40.7907L44.2934 39.4174C44.7216 38.9894 44.7216 38.2956 44.2936 37.8678Z" fill="white"/>
<path id="Vector_3" d="M23.1326 37.8678C22.7046 37.4399 22.011 37.44 21.583 37.8678L20.2097 39.2411L18.8364 37.8678C18.4085 37.44 17.7147 37.44 17.2868 37.8678C16.8588 38.2957 16.8588 38.9895 17.2868 39.4174L18.6601 40.7907L17.2868 42.1641C16.8588 42.592 16.8588 43.2858 17.2868 43.7137C17.5007 43.9276 17.7811 44.0346 18.0615 44.0346C18.3419 44.0346 18.6223 43.9276 18.8363 43.7137L20.2096 42.3404L21.5829 43.7137C21.7969 43.9276 22.0773 44.0346 22.3577 44.0346C22.638 44.0346 22.9186 43.9276 23.1324 43.7137C23.5604 43.2858 23.5604 42.592 23.1324 42.1641L21.7591 40.7907L23.1324 39.4174C23.5606 38.9894 23.5606 38.2956 23.1326 37.8678Z" fill="white"/>
</g>
<g id="Group_3">
<path id="Vector_4" d="M33.7131 37.8678C33.2851 37.4399 32.5915 37.44 32.1635 37.8678L30.7901 39.2411L29.4168 37.8678C28.9889 37.44 28.2951 37.44 27.8672 37.8678C27.4393 38.2957 27.4393 38.9895 27.8672 39.4174L29.2405 40.7907L27.8672 42.1641C27.4393 42.592 27.4393 43.2858 27.8672 43.7137C28.0812 43.9276 28.3616 44.0346 28.642 44.0346C28.9224 44.0346 29.2028 43.9276 29.4167 43.7137L30.79 42.3404L32.1634 43.7137C32.3773 43.9276 32.6577 44.0346 32.9381 44.0346C33.2184 44.0346 33.499 43.9276 33.7129 43.7137C34.1408 43.2858 34.1408 42.592 33.7129 42.1641L32.3396 40.7907L33.7129 39.4174C34.141 38.9894 34.141 38.2956 33.7131 37.8678Z" fill="#00EAC7"/>
<path id="Vector_5" d="M32.6716 10.3148V7.17148C32.6716 3.21708 29.4545 0 25.5001 0C21.5457 0 18.3286 3.21708 18.3286 7.17148V10.3148C17.1478 10.7488 16.3033 11.8847 16.3033 13.2142V23.4066C16.3033 25.1092 17.6885 26.4945 19.3912 26.4945H31.6089C33.3116 26.4945 34.6968 25.1092 34.6968 23.4066V13.2142C34.6968 11.8847 33.8523 10.7488 32.6716 10.3148ZM25.5001 2.19141C28.2461 2.19141 30.4802 4.42545 30.4802 7.17148V10.1263H20.52V7.17148C20.52 4.42545 22.754 2.19141 25.5001 2.19141ZM32.5054 23.4065C32.5054 23.9008 32.1033 24.303 31.6089 24.303H19.3912C18.8969 24.303 18.4948 23.9008 18.4948 23.4065V13.2142C18.4948 12.7199 18.8969 12.3177 19.3912 12.3177H31.6089C32.1033 12.3177 32.5054 12.7199 32.5054 13.2142V23.4065Z" fill="#00EAC7"/>
<path id="Vector_6" d="M27.9474 15.3875L24.426 18.9089L23.0527 17.5356C22.6247 17.1077 21.9309 17.1078 21.5031 17.5356C21.0751 17.9635 21.0751 18.6572 21.5031 19.0852L23.6511 21.2332C23.8651 21.4472 24.1455 21.5542 24.4259 21.5542C24.7063 21.5542 24.9867 21.4472 25.2007 21.2332L29.4968 16.9371C29.9247 16.5092 29.9247 15.8154 29.4968 15.3875C29.069 14.9595 28.3754 14.9596 27.9474 15.3875Z" fill="#00EAC7"/>
<path id="Vector_7" d="M12.5523 37.8678C12.1244 37.44 11.4306 37.44 11.0027 37.8678L9.62938 39.2411L8.25606 37.8678C7.82804 37.4399 7.13446 37.44 6.70644 37.8678C6.27852 38.2957 6.27852 38.9895 6.70644 39.4174L8.07975 40.7907L6.70644 42.1641C6.27852 42.592 6.27852 43.2858 6.70644 43.7137C6.9204 43.9276 7.2008 44.0346 7.4812 44.0346C7.7615 44.0346 8.0421 43.9276 8.25596 43.7137L9.62928 42.3404L11.0026 43.7137C11.2166 43.9276 11.497 44.0346 11.7774 44.0346C12.0578 44.0346 12.3382 43.9276 12.5521 43.7137C12.98 43.2858 12.98 42.592 12.5521 42.1641L11.1788 40.7907L12.5521 39.4174C12.9802 38.9894 12.9802 38.2956 12.5523 37.8678Z" fill="#00EAC7"/>
</g>
</g>
</g>
<defs>
<clipPath id="clip0_298_534">
<rect width="51" height="51" fill="white"/>
</clipPath>
</defs>
</svg>
