<svg width="48" height="48" viewBox="0 0 48 48" fill="none" xmlns="http://www.w3.org/2000/svg">
<g id="rocket 1" clip-path="url(#clip0_7_34)">
<g id="Group">
<path id="Vector" d="M11.8997 36.1661L11.8995 36.1659C12.9018 37.1683 12.9018 38.7993 11.8996 39.8015C11.7514 39.9497 11.5859 40.0794 11.4073 40.1872C11.2991 40.2548 11.1715 40.3103 11.0515 40.3691L3.67506 44.3236C3.74809 44.1815 7.6509 37.1172 7.72609 36.954C7.85499 36.6591 8.03584 36.3938 8.26365 36.166C8.76484 35.6648 9.42315 35.4141 10.0816 35.4141C10.74 35.4141 11.3983 35.6648 11.8995 36.166L11.8993 36.1658L9.17537 33.4418C8.30631 33.6139 7.47737 34.0355 6.80527 34.7075C6.40646 35.1063 6.08734 35.5687 5.85624 36.0825L0.188401 46.3812C-0.0319115 46.7814 0.0373697 47.2788 0.358651 47.6036C0.557307 47.8045 0.823088 47.9098 1.09215 47.9097C1.25818 47.9097 1.42553 47.8697 1.57909 47.7873L11.9936 42.2043C12.5053 41.9731 12.9614 41.6556 13.3579 41.2601C14.03 40.588 14.4516 39.7591 14.6237 38.89L11.8997 36.1661Z" fill="#00EAC7"/>
<g id="Group_2">
<path id="Vector_2" d="M30.3066 23.3281C27.3424 23.3895 24.6752 20.7885 24.7346 17.7587C24.7145 12.834 30.7705 10.3267 34.2467 13.8188C36.4081 15.8928 36.4084 19.6249 34.2467 21.6988C33.1604 22.785 31.7335 23.3281 30.3066 23.3281ZM30.3066 14.2508C28.4398 14.2121 26.7596 15.8506 26.7971 17.7587C26.7971 18.6961 27.1622 19.5774 27.8251 20.2402C30.0146 22.4396 33.829 20.8605 33.8162 17.7586C33.8534 15.8507 32.1737 14.212 30.3066 14.2508Z" fill="white"/>
</g>
<path id="Vector_3" d="M46.5666 10.0274C47.9985 4.88868 48.0007 1.20515 48.0001 1.05083C47.999 0.770333 47.8836 0.502208 47.6805 0.308614C47.4774 0.11502 47.2042 0.0128326 46.9239 0.0247388C41.6108 0.256676 36.5232 1.48593 31.8024 3.67846C26.0128 6.41905 21.1042 10.1871 17.1619 15.4193L8.6895 15.0074C8.39859 14.9926 8.11584 15.1026 7.91025 15.3082L0.302062 22.9162C0.0351561 23.1831 -0.0645939 23.5745 0.0419998 23.9366C0.148594 24.2987 0.444469 24.5736 0.813375 24.6534L10.14 26.6702C8.73975 29.2781 7.8645 31.1293 7.85287 31.154C7.66734 31.5475 7.74881 32.0152 8.0565 32.3229L11.8993 36.1657L11.8995 36.1659L11.8998 36.1661L15.8227 40.089C16.146 40.4125 16.6431 40.4826 17.0409 40.2677C17.2413 40.1598 18.9548 39.234 21.3172 37.8787L23.3254 47.1653C23.4819 47.9508 24.503 48.2537 25.0626 47.6766L32.6706 40.0686C32.8762 39.8629 32.9855 39.5798 32.9714 39.2893L32.5597 30.8197C40.0028 25.5813 44.3415 17.7372 46.5666 10.0274ZM44.5603 9.54327C44.2078 10.7995 43.742 12.218 43.1282 13.7345L34.2524 4.85868C37.9354 3.3509 41.8374 2.44236 45.8875 2.15033C45.7864 3.57036 45.4813 6.26071 44.5603 9.54327ZM9.04547 17.0897L15.7208 17.4142C14.2809 19.4871 12.6173 22.1974 11.1742 24.7836L3.09787 23.0373L9.04547 17.0897ZM11.9515 27.6625L15.4479 31.159L12.6287 33.9784L10.0337 31.3834C10.3994 30.6391 11.0674 29.3078 11.9515 27.6625ZM16.7351 38.0847L14.0872 35.4367L16.9064 32.6175L20.3434 36.0545C18.765 36.9614 17.4729 37.6791 16.7351 38.0847ZM30.8889 38.9331L24.9413 44.8807L23.1921 36.7909C25.5079 35.4315 28.1592 33.8147 30.5618 32.2028L30.8889 38.9331ZM34.9015 26.2636C32.4087 28.7565 26.6791 32.3446 22.1884 34.9826L18.3648 31.159L23.3347 26.1891C23.7374 25.7864 23.7373 25.1334 23.3347 24.7307C22.9319 24.328 22.2789 24.328 21.8762 24.7307L16.9063 29.7006L12.9848 25.779C15.304 21.6396 18.568 16.3975 21.8018 13.1638C24.8664 10.0991 28.3751 7.61043 32.2344 5.75765L42.2402 15.7633C40.6451 19.149 38.311 22.8541 34.9015 26.2636Z" fill="white"/>
</g>
</g>
<defs>
<clipPath id="clip0_7_34">
<rect width="48" height="48" fill="white"/>
</clipPath>
</defs>
</svg>
