<svg width="46" height="46" viewBox="0 0 46 46" fill="none" xmlns="http://www.w3.org/2000/svg">
<g id="social-media 1" clip-path="url(#clip0_7_40)">
<g id="_x3C_Group_x3E__19_">
<g id="Population_1_">
<g id="Group">
<path id="Vector" d="M23 26.7283C26.2323 26.7283 28.8619 29.358 28.8619 32.5901V34.2771C29.5611 33.9122 30.2228 33.4847 30.8385 33.001V32.5901C30.8385 28.2681 27.3222 24.7518 23 24.7518C18.6779 24.7518 15.1616 28.2681 15.1616 32.5901V33.001C15.7773 33.4847 16.4389 33.9122 17.1382 34.2771V32.5901C17.1382 29.358 19.7678 26.7283 23 26.7283Z" fill="white"/>
<path id="Vector_2" d="M30.2509 35.7702C30.3156 35.7415 30.3764 35.7056 30.4329 35.6642C30.3724 35.6999 30.3119 35.7354 30.2509 35.7702Z" fill="white"/>
<path id="Vector_3" d="M15.5671 35.6643C15.6237 35.7057 15.6844 35.7415 15.7492 35.7703C15.6882 35.7354 15.6276 35.6999 15.5671 35.6643Z" fill="white"/>
</g>
<g id="Group_2">
<path id="Vector_4" d="M23.0001 23.9883C20.1888 23.9883 17.9017 21.7011 17.9017 18.8899C17.9017 16.0787 20.1889 13.7916 23.0001 13.7916C25.8113 13.7916 28.0985 16.0787 28.0985 18.8899C28.0985 21.7011 25.8114 23.9883 23.0001 23.9883ZM23.0001 15.7681C21.2787 15.7681 19.8783 17.1686 19.8783 18.8899C19.8783 20.6112 21.2787 22.0117 23.0001 22.0117C24.7215 22.0117 26.1219 20.6112 26.1219 18.8899C26.1219 17.1686 24.7215 15.7681 23.0001 15.7681Z" fill="white"/>
</g>
</g>
<g id="Group_3">
<g id="Group_4">
<path id="Vector_5" d="M13.3411 11.9435L9.33252 7.93482C9.87787 7.12335 10.1967 6.14738 10.1967 5.09827C10.1967 2.28715 7.90957 0 5.09836 0C2.28715 0 0 2.28715 0 5.09836C0 7.90957 2.28715 10.1967 5.09836 10.1967C6.14747 10.1967 7.12335 9.87796 7.93491 9.33252L11.9435 13.3412C12.3777 12.8447 12.8447 12.3778 13.3411 11.9435ZM5.09836 8.22016C3.37696 8.22016 1.97656 6.81968 1.97656 5.09836C1.97656 3.37705 3.37696 1.97656 5.09836 1.97656C6.81968 1.97656 8.22016 3.37705 8.22016 5.09836C8.22016 6.81968 6.81968 8.22016 5.09836 8.22016Z" fill="white"/>
<path id="Vector_6" d="M40.9016 35.8033C39.8525 35.8033 38.8766 36.122 38.0651 36.6675L34.0565 32.6588C33.6223 33.1553 33.1553 33.6222 32.6588 34.0565L36.6674 38.0652C36.122 38.8767 35.8032 39.8526 35.8032 40.9017C35.8032 43.7129 38.0903 46.0001 40.9015 46.0001C43.7128 46 46 43.7128 46 40.9016C46 38.0904 43.7128 35.8033 40.9016 35.8033ZM40.9016 44.0234C39.1803 44.0234 37.7798 42.623 37.7798 40.9016C37.7798 39.1803 39.1802 37.7798 40.9016 37.7798C42.623 37.7798 44.0234 39.1803 44.0234 40.9016C44.0234 42.623 42.623 44.0234 40.9016 44.0234Z" fill="white"/>
<path id="Vector_7" d="M11.9435 32.6588L7.93491 36.6675C7.12344 36.122 6.14747 35.8033 5.09836 35.8033C2.28715 35.8033 0 38.0904 0 40.9016C0 43.7128 2.28715 46 5.09836 46C7.90957 46 10.1967 43.7128 10.1967 40.9016C10.1967 39.8525 9.87796 38.8766 9.33252 38.0651L13.3411 34.0564C12.8447 33.6222 12.3777 33.1553 11.9435 32.6588ZM5.09836 44.0234C3.37696 44.0234 1.97656 42.623 1.97656 40.9016C1.97656 39.1803 3.37696 37.7798 5.09836 37.7798C6.81968 37.7798 8.22016 39.1803 8.22016 40.9016C8.22016 42.623 6.81968 44.0234 5.09836 44.0234Z" fill="white"/>
<path id="Vector_8" d="M34.0565 13.3412L38.0651 9.33252C38.8766 9.87796 39.8525 10.1967 40.9016 10.1967C43.713 10.1967 46 7.90957 46 5.09836C46 2.28715 43.7129 0 40.9016 0C38.0904 0 35.8033 2.28715 35.8033 5.09836C35.8033 6.14747 36.1221 7.12335 36.6675 7.93491L32.6589 11.9436C33.1553 12.3778 33.6223 12.8447 34.0565 13.3412ZM40.9016 1.97656C42.6231 1.97656 44.0235 3.37705 44.0235 5.09836C44.0235 6.81968 42.6231 8.22016 40.9016 8.22016C39.1803 8.22016 37.7799 6.81968 37.7799 5.09836C37.7799 3.37705 39.1803 1.97656 40.9016 1.97656Z" fill="white"/>
</g>
</g>
<g id="Group_5">
<path id="Vector_9" d="M23 37.6885C14.9007 37.6885 8.3114 31.0992 8.3114 23C8.3114 14.9008 14.9007 8.31153 23 8.31153C31.0992 8.31153 37.6885 14.9008 37.6885 23C37.6885 31.0992 31.0992 37.6885 23 37.6885ZM23 10.2881C15.9905 10.2881 10.288 15.9907 10.288 23C10.288 30.0093 15.9905 35.7119 23 35.7119C30.0094 35.7119 35.7119 30.0094 35.7119 23C35.7119 15.9906 30.0094 10.2881 23 10.2881Z" fill="#00EAC7"/>
</g>
</g>
</g>
<defs>
<clipPath id="clip0_7_40">
<rect width="46" height="46" fill="white"/>
</clipPath>
</defs>
</svg>
